<svg xmlns="http://www.w3.org/2000/svg" viewBox="0 0 48 60"><title>12-Project vision</title><g data-name="12-Project vision" fill="#fff"><path d="M43.9 25.081l-1.595-13.548A3.99 3.99 0 0 0 40 8.38V6a3 3 0 0 0-3-3h-5a3 3 0 0 0-3 3v2.556A3.987 3.987 0 0 0 27 12v1.026a4.9 4.9 0 0 0-6 0V12a3.987 3.987 0 0 0-2-3.444V6a3 3 0 0 0-3-3h-5a3 3 0 0 0-3 3v2.38a3.99 3.99 0 0 0-2.3 3.153L4.1 25.081A5.007 5.007 0 0 0 0 30v11h.09A6.006 6.006 0 0 0 6 46h9a6.006 6.006 0 0 0 5.91-5H21v-5.026a4.9 4.9 0 0 0 6 0V41h.09A6.006 6.006 0 0 0 33 46h9a6.006 6.006 0 0 0 5.91-5H48V30a5.007 5.007 0 0 0-4.1-4.919zM31 6a1 1 0 0 1 1-1h5a1 1 0 0 1 1 1v2h-7zm0 4h7.332a2 2 0 0 1 1.986 1.766L41.875 25H31v2h12a3 3 0 0 1 3 3v5.54A5.969 5.969 0 0 0 42 34h-9a5.969 5.969 0 0 0-4 1.54V34a3 3 0 0 1 3-3h7v-2h-7a4.948 4.948 0 0 0-3 1.026V17a3 3 0 0 1 3-3h3v-2h-3a4.948 4.948 0 0 0-3 1.026V12a2 2 0 0 1 2-2zm-8 4.184V25h2V14.184A3 3 0 0 1 27 17v11.026a4.9 4.9 0 0 0-6 0V17a3 3 0 0 1 2-2.816zM11 5h5a1 1 0 0 1 1 1v2h-7V6a1 1 0 0 1 1-1zM5 27h12v-2H6.125l1.557-13.234A2 2 0 0 1 9.668 10H17a2 2 0 0 1 2 2v1.026A4.948 4.948 0 0 0 16 12h-3v2h3a3 3 0 0 1 3 3v13.026A4.948 4.948 0 0 0 16 29H9v2h7a3 3 0 0 1 3 3v1.54A5.969 5.969 0 0 0 15 34H6a5.969 5.969 0 0 0-4 1.54V30a3 3 0 0 1 3-3zm10 17H6a4 4 0 0 1 0-8h9a4 4 0 0 1 0 8zm9-9a3 3 0 1 1 3-3 3 3 0 0 1-3 3zm18 9h-9a4 4 0 0 1 0-8h9a4 4 0 0 1 0 8z"/><path d="M14 40H8v2h6a3 3 0 0 0 3-3h-2a1 1 0 0 1-1 1zm27 0h-6v2h6a3 3 0 0 0 3-3h-2a1 1 0 0 1-1 1z"/></g></svg>