<svg id="Слой_1" xmlns="http://www.w3.org/2000/svg" viewBox="0 0 189.7 39" width="190" height="39"><style>.st0{fill:#ed2024}.st1{fill:#fff}</style><path class="st0" d="M114.5 14.7c1.1.6 2.5.6 3.5 0 1.1-.6 1.8-1.8 1.8-3V3.5c0-.8.7-1.4 1.5-1.4s1.4.6 1.4 1.4v8.2c0 1.3.7 2.4 1.8 3 1.1.6 2.5.6 3.6 0l9.2-5.2-1.1-1.8-9.2 5.2c-.4.3-1 .3-1.4 0-.4-.2-.7-.7-.7-1.2V3.5c0-2-1.7-3.5-3.6-3.5s-3.4 1.6-3.5 3.5v8.2c0 .5-.3 1-.7 1.2-.4.3-1 .3-1.4 0l-9.2-5.2-1.1 1.8 9.1 5.2zm5.4 13.8c0-1.3-.7-2.4-1.8-3-1.1-.6-2.5-.6-3.5 0l-7.2 4.1c-.7.4-1.5.1-2-.5-.4-.7-.1-1.5.5-1.9l7.2-4.1c1.1-.6 1.8-1.8 1.8-3 0-1.3-.7-2.4-1.8-3l-9.2-5.2-1.1 1.8 9.2 5.2c.4.2.7.7.7 1.2s-.3 1-.7 1.2l-7.2 4.1c-1.6.9-2.3 3-1.4 4.6 0 0 0 .1.1.1 1 1.7 3.2 2.2 4.8 1.3l7.2-4.1c.4-.3 1-.3 1.4 0 .4.2.7.7.7 1.2V39h2.1l.2-10.5zm10.7-9.6l9.2-5.2-1.1-1.8-9.2 5.2c-1.1.6-1.8 1.8-1.8 3 0 1.3.7 2.4 1.8 3l7.2 4.1c.3.2.6.5.7.9.1.4 0 .7-.1 1.1-.2.3-.5.6-.9.7s-.8 0-1.1-.1l-7.2-4.1c-1.1-.6-2.5-.6-3.5 0-1.1.6-1.8 1.8-1.8 3V39h2.1V28.5c0-.5.3-1 .7-1.2.4-.3 1-.3 1.4 0l7.2 4.1c.8.5 1.8.6 2.7.3.9-.2 1.7-.8 2.2-1.6.5-.8.6-1.7.4-2.6-.2-.9-.8-1.7-1.6-2.1l-7.2-4.1c-.4-.2-.7-.7-.7-1.2-.2-.5.1-1 .6-1.2"/><path class="st1" d="M6.2 28.6V16.1H0l1.5-2.7h13.3v2.7H8.9v12.5zM24 22l-1.4-2.2h8.6V22z"/><path class="st1" d="M17.9 28.6V13.4h13.9l-1.5 2.7h-9.7V26h11.2v2.6zm31.9 0l-3.9-4.2h-4.3L40.1 22h6.5c.8.1 1.6-.2 2.2-.8.5-.6.8-1.4.7-2.3.1-.8-.2-1.6-.8-2.2-.6-.5-1.4-.8-2.2-.7H38v12.5h-2.7V13.4h11.2c.8 0 1.6.1 2.4.4.7.2 1.3.6 1.8 1.1s.9 1.1 1.1 1.7c.3.7.4 1.5.4 2.3 0 1.1-.3 2.2-.9 3.2-.6.9-1.4 1.5-2.3 1.8l4.7 4.6-3.9.1zm21 0l-3.9-4.2h-4.3L61 22.1h6.5c.8.1 1.6-.2 2.2-.8.5-.6.8-1.4.7-2.3.1-.8-.2-1.6-.8-2.2-.6-.5-1.4-.8-2.2-.7H59v12.5h-2.7V13.4h11.2c.8 0 1.6.1 2.4.4.7.2 1.3.6 1.8 1.1s.9 1.1 1.1 1.7c.3.7.4 1.5.4 2.3 0 1.1-.3 2.2-.9 3.2-.6.9-1.4 1.5-2.3 1.8l4.7 4.6-3.9.1zm22.7 0l-2.3-3.8h-7.4l1.3-2.2h4.8L86.4 17l-7 11.7h-3.1l8.9-14.5c.1-.3.4-.7.4-.7h1.8s.2.4.4.7l8.9 14.5-3.2-.1zm72.1-10.8c-.4-.9-.9-1.7-1.6-2.4-.7-.6-1.5-1.2-2.4-1.5-1-.3-2-.5-3.1-.5h-3.8c-1 0-2 .1-3 .5-.9.3-1.7.8-2.4 1.5s-1.2 1.5-1.6 2.4c-.4.9-.6 2-.6 3 0 1.1.2 2.1.6 3.1s.9 1.8 1.6 2.5c.7.7 1.5 1.2 2.4 1.6 1 .4 2 .6 3 .6h3.8c1.1 0 2.1-.2 3.1-.6.9-.3 1.7-.9 2.4-1.6.7-.7 1.2-1.6 1.6-2.5.4-1 .6-2.1.6-3.1s-.2-2-.6-3zm-2.5 5.2c-.2.6-.6 1.1-1 1.6-.5.4-1 .8-1.6 1-.7.3-1.3.4-2 .4l-3.8-.1c-.6 0-1.3-.1-1.9-.4-.5-.2-1.1-.6-1.5-1-.4-.5-.8-1-1-1.6-.5-1.3-.5-2.7 0-4 .2-.5.6-1.1 1-1.5.4-.4.9-.8 1.5-1 .6-.3 1.2-.4 1.9-.4h3.8c.7 0 1.4.2 2 .4 1.2.5 2.1 1.4 2.6 2.6.5 1.3.5 2.7 0 4zm6.6-9.6h2.7v15.2h-2.7zm6.8 15.2V13.4h2.8V26h10.4l-1.5 2.6z"/></svg>