<svg xmlns="http://www.w3.org/2000/svg" width="28" height="26" viewBox="0 0 28 26"><defs><style>.cls-1{fill:#262626;fill-rule:evenodd}</style></defs><path id="Newspaper_alt_" data-name="Newspaper (alt)" class="cls-1" d="M665 1325a2 2 0 0 0-2-2h-20a2 2 0 0 0-2 2h-2a4 4 0 0 1 4-4h20a4 4 0 0 1 4 4h-2zm-20 0h7a1 1 0 0 1 0 2h-7a1 1 0 0 1 0-2zm0 4h4a1 1 0 0 1 0 2h-4a1 1 0 0 1 0-2zm0 10h11a1 1 0 0 1 0 2h-11a1 1 0 0 1 0-2zm0-4h16a1 1 0 0 1 0 2h-16a1 1 0 0 1 0-2zm-4 8a2 2 0 0 0 2 2h20a2 2 0 0 0 2-2v-18h2v18a4 4 0 0 1-4 4h-20a4 4 0 0 1-4-4v-18h2v18z" transform="translate(-639 -1321)"/></svg>