<svg xmlns="http://www.w3.org/2000/svg" width="29.16" height="31.437" viewBox="0 0 29.16 31.437"><defs><style>.cls-1{fill:#ebebeb;fill-rule:evenodd}</style></defs><path class="cls-1" d="M9.24 11.809a2.758 2.758 0 0 0 2.8 0 2.848 2.848 0 0 0 1.41-2.429V2.788a1.135 1.135 0 0 1 2.27 0V9.38a2.839 2.839 0 0 0 4.24 2.429l7.24-4.187-.83-1.434-7.27 4.186a1.1 1.1 0 0 1-1.13 0 1.13 1.13 0 0 1-.56-.971V2.788a2.8 2.8 0 0 0-5.6 0V9.38a1.12 1.12 0 0 1-1.69.971L2.83 6.142 2 7.576zm4.21 11.195a2.8 2.8 0 0 0-1.41-2.429 2.758 2.758 0 0 0-2.8 0l-5.71 3.308a1.136 1.136 0 0 1-1.14-1.966l5.72-3.308a2.869 2.869 0 0 0 1.41-2.429 2.8 2.8 0 0 0-1.41-2.428L.82 9.565l-.83 1.434 7.29 4.21a1.145 1.145 0 0 1 .55.971 1.118 1.118 0 0 1-.55.972L1.56 20.46a2.793 2.793 0 1 0 2.8 4.834l5.72-3.308a1.1 1.1 0 0 1 1.13 0 1.123 1.123 0 0 1 .55.971v8.489h1.67zm8.45-7.8l7.27-4.187-.84-1.434-7.26 4.187a2.847 2.847 0 0 0-1.41 2.429 2.8 2.8 0 0 0 1.41 2.428l5.71 3.308a1.257 1.257 0 0 1 .54.694 1.149 1.149 0 0 1-.12.855 1.225 1.225 0 0 1-.69.533 1.1 1.1 0 0 1-.86-.116l-5.72-3.331a2.758 2.758 0 0 0-2.8 0 2.87 2.87 0 0 0-1.41 2.429v8.443h1.67v-8.443a1.12 1.12 0 0 1 1.69-.971l5.71 3.307a2.854 2.854 0 0 0 2.13.278 2.811 2.811 0 0 0 .7-5.135L21.9 17.17a1.133 1.133 0 0 1-.56-.971 1.1 1.1 0 0 1 .56-1"/></svg>