<?xml version="1.0" encoding="utf-8"?>
<!-- Generator: Adobe Illustrator 18.0.0, SVG Export Plug-In . SVG Version: 6.00 Build 0)  -->
<!DOCTYPE svg PUBLIC "-//W3C//DTD SVG 1.1//EN" "http://www.w3.org/Graphics/SVG/1.1/DTD/svg11.dtd">
<svg version="1.1" id="Layer_1" xmlns="http://www.w3.org/2000/svg" xmlns:xlink="http://www.w3.org/1999/xlink" x="0px" y="0px"
	 viewBox="0 0 841.9 595.3" enable-background="new 0 0 841.9 595.3" xml:space="preserve">
<g>
	<g transform="translate(10,10) scale(1 1)">
		<path fill="#CACACA" d="M540,357.3v8l-124.7-67.4v-8L540,357.3z"/>
		<path fill="#7B7B7B" d="M263.7,318.8v8l151.6-28.9v-8L263.7,318.8z"/>
		<path fill="#7B7B7B" d="M415.2,178.9v8l0.1,111v-8L415.2,178.9z"/>
		<path fill="#A6A6A6" d="M540,357.3v8l-124.7-67.5v-8L540,357.3z"/>
		<path fill="#7B7B7B" d="M263.7,318.8c-3.8-9.9-5.4-18.6-5.4-28.9v8c0-61.3,70.3-111,156.9-111v-8c-86.7,0-156.9,49.7-156.9,111v8
			c0,10.3,1.6,19,5.4,28.9V318.8z"/>
		<path fill="#7B7B7B" d="M415.3,289.9L415.3,289.9L415.3,289.9v8l0,0l0,0V289.9z"/>
		<path fill="#CACACA" d="M415.3,178.9v8l0,111v-8L415.3,178.9z"/>
		<path fill="#A6A6A6" d="M263.7,318.8v8l151.6-28.9v-8L263.7,318.8z"/>
		<path fill="#CACACA" d="M572.3,289.9c0,25.5-10.4,47.2-32.3,67.4v8c21.9-20.2,32.3-42,32.3-67.4V289.9z"/>
		<path fill="#CACACA" d="M415.3,289.9L415.3,289.9L415.3,289.9v8l0,0l0,0V289.9z"/>
		<path fill="#A6A6A6" d="M540,357.3c-52.7,48.7-151.2,58-220.1,20.7c-28.7-15.5-46.8-34.6-56.2-59.2v8
			C286.3,386,372.5,421,456.2,405c34.9-6.7,61.9-19.4,83.8-39.7V357.3z"/>
		<path fill="#A6A6A6" d="M415.3,289.9L415.3,289.9L415.3,289.9v8l0,0l0,0V289.9z"/>
		<g>
			<path fill="#E3E3E3" stroke="#FFFFFF" stroke-linejoin="round" d="M415.3,178.9c86.7,0,157,49.7,157,111
				c0,25.5-10.4,47.2-32.3,67.5l-124.7-67.4l0,0l0,0L415.3,178.9z"/>
		</g>
		<g>
			<path fill="#BFBFBF" stroke="#FFFFFF" stroke-linejoin="round" d="M540,357.3c-52.7,48.7-151.2,58-220.1,20.7
				c-28.7-15.5-46.8-34.6-56.2-59.2l151.6-28.9l0,0l0,0L540,357.3z"/>
		</g>
		<g>
			<path fill="#949494" stroke="#FFFFFF" stroke-linejoin="round" d="M263.7,318.8c-22.6-59.2,27-120.1,110.7-136.1
				c14-2.7,26.3-3.8,40.8-3.8l0.1,111l0,0l0,0L263.7,318.8z"/>
		</g>
	</g>
	<g transform="translate(10,10) scale(1 1)">
	</g>
</g>
<g transform="translate(10,10) scale(1 1)">
	<path fill="none" stroke="#D8D8D8" d="M609.7,217.9c-7,0-25.5,4.9-39.3,11.8l-13.9,6.9"/>
	<path fill="none" stroke="#BABABA" d="M285.8,431c7,0,98.8-10.9,101.7-26.1l2.9-15.2"/>
	<path fill="none" stroke="#8B8B8B" stroke-width="1.5059" d="M283.1,88.1c7,0,89.1,24.6,93.2,58.4l4.1,33.8"/>
	<g transform="translate(460,130)">
		<text transform="matrix(1 0 0 1 163.4962 87.844)" font-family="'Helvetica'" font-size="22.4504">Peter Krempin</text>
	</g>
	<g transform="translate(93,282)">
		<text transform="matrix(1 0 0 1 15.54 162.7929)" font-family="'Helvetica'" font-size="22.4504">Shefqet Dizdari</text>
	</g>
	<g transform="translate(0,137)">
		<text transform="matrix(1 0 0 1 55.0468 -41.305)" font-family="'Helvetica'" font-size="22.4504">Minority shareholders</text>
	</g>
	<g transform="translate(72,74)">
		<text transform="matrix(1 0 0 1 252.6069 175.1937)" font-family="'Helvetica'" font-size="19.6441">30.8%</text>
	</g>
	<g transform="translate(72,74)">
		<text transform="matrix(1 0 0 1 394.2823 189.0091)" font-family="'Helvetica'" font-size="19.6441">34.6%</text>
	</g>
	<g transform="translate(72,74)">
		<text transform="matrix(1 0 0 1 308.3282 275.5379)" font-family="'Helvetica'" font-size="19.6441">34.6%</text>
	</g>
	<g transform="translate(460,130)">
		<text transform="matrix(1 0 0 1 163.4962 113.2626)" font-family="'Helvetica'" font-size="14.0315">CEO, Member of the</text>
		<text transform="matrix(1 0 0 1 163.4962 130.1008)" font-family="'Helvetica'" font-size="14.0315">Board of Directors and a</text>
		<text transform="matrix(1 0 0 1 163.4962 146.9384)" font-family="'Helvetica'" font-size="14.0315">major shareholder</text>
	</g>
	<g transform="translate(460,130)">
		<text transform="matrix(1 0 0 1 -351.4601 337.7664)" font-family="'Helvetica'" font-size="14.0315">Administrator Petroleum Operations,</text>
		<text transform="matrix(1 0 0 1 -351.4601 354.6044)" font-family="'Helvetica'" font-size="14.0315">Member of the Board of Directors and a</text>
		<text transform="matrix(1 0 0 1 -351.4601 371.442)" font-family="'Helvetica'" font-size="14.0315">major shareholder</text>
	</g>
</g>
<g transform="translate(0,0)" display="none">
	<path display="inline" fill="none" stroke="#000000" stroke-width="5" stroke-opacity="5.000000e-02" d="M5.6,18.4h14
		c4.2,0,4.2,0,4.2,4.2v14c0,4.2,0,4.2-4.2,4.2h-14c-4.2,0-4.2,0-4.2-4.2v-14C1.4,18.4,1.4,18.4,5.6,18.4"/>
	<path display="inline" fill="none" stroke="#000000" stroke-width="3" stroke-opacity="0.1" d="M5.6,18.4h14c4.2,0,4.2,0,4.2,4.2
		v14c0,4.2,0,4.2-4.2,4.2h-14c-4.2,0-4.2,0-4.2-4.2v-14C1.4,18.4,1.4,18.4,5.6,18.4"/>
	<path display="inline" fill="none" stroke="#000000" stroke-opacity="0.15" d="M5.6,18.4h14c4.2,0,4.2,0,4.2,4.2v14
		c0,4.2,0,4.2-4.2,4.2h-14c-4.2,0-4.2,0-4.2-4.2v-14C1.4,18.4,1.4,18.4,5.6,18.4"/>
	
		<linearGradient id="SVGID_1_" gradientUnits="userSpaceOnUse" x1="-37" y1="62.6575" x2="-37" y2="63.6575" gradientTransform="matrix(22.4504 0 0 22.4504 841.89 -1389.6768)">
		<stop  offset="0" style="stop-color:#606060;stop-opacity:0.8"/>
		<stop  offset="1" style="stop-color:#101010;stop-opacity:0.8"/>
	</linearGradient>
	<path display="inline" fill="url(#SVGID_1_)" d="M4.2,17h14c4.2,0,4.2,0,4.2,4.2v14c0,4.2,0,4.2-4.2,4.2h-14c-4.2,0-4.2,0-4.2-4.2
		v-14C0,17,0,17,4.2,17"/>
</g>
<g transform="translate(460,130)">
	<text transform="matrix(1 0 0 1 -394.9532 -2.6321)" font-family="'Helvetica'" font-size="14.0315">More than 450 registered shareholders </text>
	<text transform="matrix(1 0 0 1 -394.9532 14.2055)" font-family="'Helvetica'" font-size="14.0315">with less than 10% each</text>
</g>
</svg>
