<svg id="Layer_1" xmlns="http://www.w3.org/2000/svg" viewBox="0 0 268.4 50"><style>.st0{fill:#fff}.st1{fill:#ed2024}.st2{fill:#a7a9ac}</style><path class="st1" d="M130.1 19.4c1.2.7 2.8.7 4 0 1.2-.7 2-2 2-3.4V6.6c0-.9.7-1.6 1.6-1.6.9 0 1.6.7 1.6 1.6V16c0 1.4.8 2.7 2 3.4.6.4 1.3.5 2 .5s1.4-.2 2-.5l10.3-5.9-1.2-2-10.3 5.9c-.5.3-1.1.3-1.6 0s-.8-.8-.8-1.4V6.6c0-2.2-1.8-4-4-4s-4 1.8-4 4V16c0 .6-.3 1.1-.8 1.4-.5.3-1.1.3-1.6 0l-10.3-6-1.2 2 10.3 6zm5.9 15.9c0-1.4-.8-2.7-2-3.4-1.2-.7-2.8-.7-4 0l-8.1 4.7c-.8.4-1.7.2-2.2-.6-.4-.8-.2-1.7.6-2.2l8.1-4.7c1.2-.7 2-2 2-3.4s-.8-2.7-2-3.4l-10.3-6-1.2 2 10.3 6c.5.3.8.8.8 1.4 0 .6-.3 1.1-.8 1.4l-8.1 4.7c-1.9 1.1-2.6 3.5-1.4 5.4 1.1 1.9 3.5 2.6 5.4 1.4l8.1-4.7c.5-.3 1.1-.3 1.6 0s.8.8.8 1.4v12.1h2.4V35.3zm12-11.1l10.3-5.9-1.2-2-10.3 5.9c-1.2.7-2 2-2 3.4s.8 2.7 2 3.4l8.1 4.7c.4.2.6.6.8 1 .1.4.1.9-.2 1.2-.2.4-.6.6-1 .8-.4.1-.9.1-1.2-.2l-8.1-4.7c-1.2-.7-2.8-.7-4 0-1.2.7-2 2-2 3.4v12h2.4v-12c0-.6.3-1.1.8-1.4.5-.3 1.1-.3 1.6 0l8.1 4.7c.9.5 2 .7 3 .4s1.9-.9 2.4-1.8.7-2 .4-3c-.3-1-.9-1.9-1.8-2.4L148 27c-.5-.3-.8-.8-.8-1.4 0-.5.3-1.1.8-1.4z"/><path d="M8.8 35.4V21H1.9l1.6-3h14.9v3h-6.6v14.4zm19.9-7.6l-1.6-2.6h9.7v2.6h-8.1zm-6.8 7.6V18h15.5l-1.6 3H24.9v11.3h12.5v3.1H21.9zm35.7 0l-4.4-4.8h-4.9l-1.6-2.7H54c1.1 0 1.9-.3 2.5-.9.6-.6.8-1.5.8-2.6s-.3-2-.9-2.5c-.6-.6-1.4-.9-2.5-.9h-9.5v14.3h-3V18h12.5c1 0 1.9.1 2.7.4.8.3 1.4.7 2 1.3.6.6 1 1.2 1.2 2 .3.8.4 1.7.4 2.6 0 1.4-.3 2.7-1 3.6-.6 1-1.5 1.7-2.6 2.1l5.3 5.3-4.3.1zm23.5 0l-4.4-4.8h-4.9l-1.6-2.7h7.3c1.1 0 1.9-.3 2.5-.9.6-.6.8-1.5.8-2.6s-.3-2-.9-2.5c-.6-.6-1.4-.8-2.5-.8h-9.5v14.3h-3V18h12.5c1 0 1.9.1 2.7.4s1.4.7 2 1.3c.6.6 1 1.2 1.2 2 .3.8.4 1.7.4 2.6 0 1.4-.3 2.7-1 3.6-.6 1-1.5 1.7-2.6 2.1l5.3 5.3-4.3.1zm25.4 0l-2.6-4.4h-8.2l1.4-2.5h5.3L98.5 22l-7.9 13.4h-3.5l10-16.6c.2-.3.5-.8.5-.8h2.1l.4.8 10 16.6h-3.6zm72.7-3.1c.8 0 1.5-.1 2.2-.4.7-.3 1.2-.7 1.7-1.2s.9-1.1 1.1-1.8c.3-.7.4-1.4.4-2.3 0-.8-.1-1.6-.4-2.3-.3-.7-.7-1.3-1.1-1.8-.5-.5-1.1-.9-1.7-1.1-.7-.3-1.4-.4-2.2-.4H175c-.8 0-1.5.1-2.2.4-.7.3-1.2.7-1.7 1.1-.5.5-.9 1.1-1.1 1.8-.3.7-.4 1.4-.4 2.3 0 .8.1 1.6.4 2.3.3.7.7 1.3 1.1 1.8.5.5 1.1.9 1.7 1.2.7.3 1.4.4 2.2.4h4.2zm-4.2 3.1c-1.2 0-2.3-.2-3.3-.7-1-.5-1.9-1.1-2.7-1.9-.8-.8-1.3-1.7-1.8-2.8-.4-1.1-.6-2.3-.6-3.5 0-1.3.2-2.4.6-3.5.4-1.1 1-1.9 1.8-2.7.8-.8 1.6-1.3 2.7-1.7 1-.4 2.1-.6 3.3-.6h4.2c1.2 0 2.4.2 3.4.6 1.1.4 1.9 1 2.7 1.7.8.8 1.3 1.6 1.7 2.7.4 1.1.6 2.2.6 3.4 0 1.2-.2 2.4-.6 3.5-.4 1.1-1 2-1.8 2.8-.8.8-1.6 1.4-2.7 1.9s-2.2.7-3.4.7H175zM191.8 18h3.1v17.4h-3.1zm7.7 17.4V18h3v14.3h11.7l-1.6 3.1z"/></svg>