<svg xmlns="http://www.w3.org/2000/svg" width="2198" height="661.4" viewBox="0 0 2198 661.4"><defs><style>.cls-1,.cls-2{opacity:.37}.cls-1,.cls-2,.cls-3,.cls-4,.cls-5{fill:#3a3a3a;fill-rule:evenodd}.cls-3,.cls-4{opacity:.2}.cls-5{opacity:.4}</style></defs><path class="cls-1" d="M126 128.34s209-91 396-76 311.52 15.61 452-38c131-50 193.94 45.73 304 59 141 17 227-72 393-32s110 48 265 54 262 39 262 39l-10 468s-1984 61-1988 59-200-78-200-119 56-354 56-354z"/><path class="cls-2" d="M126 128.34s209-91 396-76 311.52 15.61 452-38c131-50 193.94 45.73 304 59 141 17 227-72 393-32s110 48 265 54 262 39 262 39l-10 468s-1984 61-1988 59-200-78-200-119 56-354 56-354z"/><path class="cls-3" d="M203 122.37s-39 1 47-11 304-79 543-58c155.51 13.66 208 15 328-26s194.46-34.98 270.79 11.48c78.63 47.87 182.71 58.68 390.21 38.52 207.98-20.21 301 16 382 48s79 65 76 85-16 332-16 332l-135 96-2154 22s121-407 124-425 144-113 144-113z"/><path class="cls-1" d="M203 122.37s-39 1 47-11 304-79 543-58c155.51 13.66 208 15 328-26s194.46-34.98 270.79 11.48c78.63 47.87 182.71 58.68 390.21 38.52 207.98-20.21 301 16 382 48s79 65 76 85-16 332-16 332l-135 96-2154 22s121-407 124-425 144-113 144-113z"/><path class="cls-5" d="M19 122.37s-39 1 47-11 304-79 543-58c155.51 13.66 208 15 328-26s194.46-34.98 270.79 11.48c78.63 47.87 182.71 58.68 390.21 38.52 207.98-20.21 301 16 382 48s79 65 76 85-16 332-16 332l-135 96-2154 22s121-407 124-425 144-113 144-113z"/></svg>